# xmcd CD database file
#
# Track frame offsets:
#	150
#	15722
#	28825
#	44722
#	56507
#	70967
#	83817
#	97242
#	111307
#	125037
#	138357
#	150337
#	164120
#	178087
#	191462
#	206972
#	219507
#	233312
#	248625
#	261337
#	275722
#	289155
#	304675
#	316517
#	329502
#
# Disc length: 4571 seconds
#
# Revision: 7
# Processed by: cddbd v1.5.2PL0 Copyright (c) Steve Scherf et al.
# Submitted via: CDex 1.99.1
#
DISCID=7c11d919
DTITLE=Various Artist - Roots n' Blues:  The Retrospective, 1925-1950 [box set Disc 1]
DYEAR=1992
DGENRE=Blues
TTITLE0=Charlie Poole and The North Carolina Ramblers - Whitehouse Blues
TTITLE1=Aiken County String Band - High Sheriff
TTITLE2=Frank Hutchinson - The Last Scene of the Titanic
TTITLE3=Hersal Thomas - Suitcase Blues
TTITLE4=Reverend J.M. Gates - Death's Black Train is Coming
TTITLE5=Dora Carr - Cow-Cow Blues
TTITLE6=Vances Tennessee Breakdowners - Washington County Fox Chase
TTITLE7=Fiddlin' John Carson - I'm Going to Take the Train to Charlotte
TTITLE8=Ernest V. Stoneman's Trio - Untitled
TTITLE9=Whistler and His Jug Band - Low Down Blues
TTITLE10=Washington Phillips - Paul and Silas in Jail
TTITLE11=Barbeque Bob - Blind Pig Blues
TTITLE12=Austin and Lee Allen - Chattanooga Blues
TTITLE13=Sherman Tedder - Untitled
TTITLE14=Dallas String Band with Coley Jones - Hokum Blues
TTITLE15=Gladys Bentley - Worried Blues
TTITLE16=Elizabeth Johnson - Empty Bed Blues, Part 1
TTITLE17=Elizabeth Johnson - Empty Bed Blues, Part 2
TTITLE18=South Georgia Highballers - Blue Grass Twist
TTITLE19=Charlie Bowman and His Brothers - Moonshiner and His Money
TTITLE20=Clarence Green - Johnson City Blues
TTITLE21=Reverend Johnny Blakey assisted by The Santified Sisters - Warming By the Devil's Fire
TTITLE22=Papa Too Sweet and Harry Jones - (Honey) It's Tight Like That
TTITLE23=Mississippi John Hurt - Big Leg Blues
TTITLE24=Daniels-Deason Sacred Harp Singers - Hallelujah
EXTD=YEAR: 1992
EXTT0=
EXTT1=
EXTT2=
EXTT3=
EXTT4=
EXTT5=
EXTT6=
EXTT7=
EXTT8=
EXTT9=
EXTT10=
EXTT11=
EXTT12=
EXTT13=
EXTT14=
EXTT15=
EXTT16=
EXTT17=
EXTT18=
EXTT19=
EXTT20=
EXTT21=
EXTT22=
EXTT23=
EXTT24=
PLAYORDER=
